<?xml version="1.0" encoding="UTF-8"?>
<svg width="64px" height="64px" viewBox="0 0 64 64" version="1.1" xmlns="http://www.w3.org/2000/svg" xmlns:xlink="http://www.w3.org/1999/xlink">
    <!-- Generator: Sketch 51.2 (57519) - http://www.bohemiancoding.com/sketch -->
    <title>01</title>
    <desc>Created with Sketch.</desc>
    <defs></defs>
    <g id="Symbols" stroke="none" stroke-width="1" fill="none" fill-rule="evenodd" opacity="0.6">
        <g id="应用" fill="#000000" fill-rule="nonzero">
            <path d="M16.2374867,2.04652268 C8.43262172,2.04652268 2.10557091,8.38065067 2.10557091,16.194246 C2.10557091,24.0078413 8.43262165,30.3419693 16.2374867,30.3419693 L30.3694025,30.3419693 L30.3694025,16.194246 C30.3694025,8.3807194 24.0423517,2.04652268 16.2374867,2.04652268 Z M26.9393944,26.9080558 L16.2375553,26.9080558 C10.3271216,26.9080558 5.53571613,22.1112909 5.53571613,16.194246 C5.53571613,10.2772011 10.3271216,5.48043611 16.2375553,5.48043611 C22.1479889,5.48043611 26.9393944,10.2772011 26.9393944,16.194246 L26.9393944,26.9080558 Z" id="Shape"></path>
            <path d="M33.6817589,16.194246 L33.6817589,30.3419693 L47.8136747,30.3419693 C55.6185396,30.3419693 61.9455905,24.0078413 61.9455905,16.194246 C61.9455905,8.38065067 55.6185397,2.04652268 47.8136747,2.04652268 C40.0088097,2.04652268 33.6817589,8.3807194 33.6817589,16.194246 Z M37.1117669,16.194246 C37.1117669,10.2772011 41.9031724,5.48043611 47.813606,5.48043611 C53.7240397,5.48043611 58.5154452,10.2772011 58.5154452,16.194246 C58.5154452,22.1112909 53.7240397,26.9080558 47.813606,26.9080558 L37.1117669,26.9080558 L37.1117669,16.194246 Z" id="Shape"></path>
            <path d="M30.29202,47.8056854 L30.29202,33.6579621 L16.1601042,33.6579621 C8.35523922,33.6579621 2.0281884,39.9920901 2.0281884,47.8056854 C2.0281884,55.6192807 8.35523915,61.9534087 16.1601042,61.9534087 C23.9649691,61.9534087 30.29202,55.6192806 30.29202,47.8056854 Z M26.8620119,47.8056854 C26.8620119,53.7227303 22.0706064,58.5194952 16.1601728,58.5194952 C10.2497391,58.5194952 5.45833363,53.7227303 5.45833363,47.8056854 C5.45833363,41.8886405 10.2497391,37.0918755 16.1601728,37.0918755 L26.8620119,37.0918755 L26.8620119,47.8056854 Z" id="Shape"></path>
            <path d="M47.8136746,61.9534087 C55.6185396,61.9534087 61.9455904,55.6192807 61.9455904,47.8056854 C61.9455904,39.9920901 55.6185396,33.6579621 47.8136746,33.6579621 L33.6817588,33.6579621 L33.6817588,47.8056854 C33.6817589,55.6192806 40.0088097,61.9534087 47.8136746,61.9534087 Z M37.1117669,37.0918755 L47.813606,37.0918755 C53.7240397,37.0918755 58.5154452,41.8886405 58.5154452,47.8056854 C58.5154452,53.7227303 53.7240397,58.5194952 47.813606,58.5194952 C41.9031724,58.5194952 37.1117669,53.7227303 37.1117669,47.8056854 L37.1117669,37.0918755 Z" id="Shape"></path>
        </g>
    </g>
</svg>