<?xml version="1.0" encoding="UTF-8"?>
<svg width="35px" height="36px" viewBox="0 0 35 36" version="1.1" xmlns="http://www.w3.org/2000/svg" xmlns:xlink="http://www.w3.org/1999/xlink">
    <!-- Generator: Sketch 51.2 (57519) - http://www.bohemiancoding.com/sketch -->
    <title>1</title>
    <desc>Created with Sketch.</desc>
    <defs></defs>
    <g id="New" stroke="none" stroke-width="1" fill="none" fill-rule="evenodd">
        <g id="Artboard" transform="translate(-482.000000, -1938.000000)" fill="#FFFFFF" fill-rule="nonzero">
            <g id="1" transform="translate(482.000000, 1938.000000)">
                <path d="M17.2446807,0 C7.73590353,0 0,7.62539063 0,16.9983281 C0,26.3713359 7.73590353,33.9967969 17.2446807,33.9967969 C18.0393139,33.9967969 18.8358016,33.9422344 19.6190931,33.8359922 C20.3910428,35.1294609 21.8172452,36 23.4465999,36 C25.8937704,36 27.8846332,34.0375078 27.8846332,31.6253672 L27.8677276,24.6245625 C27.8677276,20.7381797 24.6600917,17.5762969 20.7173845,17.5762969 C16.7746773,17.5762969 13.5669701,20.7381797 13.5669701,24.6245625 L13.5669701,26.5661719 C13.5669512,26.7424202 13.6379719,26.9114551 13.7644044,27.0360815 C13.890837,27.1607079 14.0623217,27.230714 14.2411243,27.2306953 L16.275856,27.2306953 C17.1108628,27.2306953 17.4565353,27.2306953 18.1493071,27.2061562 L18.1509477,27.2061562 C18.1868274,27.2061562 18.3248539,27.2460938 18.5175204,27.4293984 C18.8208933,27.7178203 19.0086379,28.1172656 19.0086379,28.3219453 L19.0086379,31.6253672 C19.0086379,31.9462031 19.0448743,32.2587422 19.1116406,32.5601719 C18.4920306,32.631652 17.8687337,32.6676188 17.2448947,32.6678906 C8.47946332,32.6678906 1.34845109,25.6385391 1.34845109,16.9983984 C1.34845109,8.35825781 8.47946332,1.32897656 17.2448234,1.32897656 C26.0101834,1.32897656 33.1413383,8.3581875 33.1413383,16.9983281 C33.1413383,19.8826875 32.3399287,22.7014453 30.8237772,25.1500078 C30.6298268,25.4631797 30.7301189,25.8721875 31.0479721,26.0633672 C31.3656114,26.2545469 31.7806182,26.1556875 31.9745686,25.842375 C33.6199728,23.1853359 34.4895754,20.1269531 34.4895754,16.9983984 C34.4895041,7.62539063 26.7536005,0 17.2446807,0 Z M15.646498,25.9017188 L14.9151359,25.9017188 L14.9151359,24.6246328 C14.9151359,21.4709766 17.5179518,18.9053438 20.7173132,18.9053438 C23.8308628,18.9053438 26.3785394,21.3354844 26.5128567,24.3725625 C25.9252989,23.9288906 25.1913689,23.664375 24.3957371,23.664375 L19.6785836,23.664375 L18.3150815,23.6721094 C18.3056658,23.6721797 18.2961073,23.6724609 18.2866916,23.6728828 C17.680659,23.7015703 15.9453057,23.78475 15.646498,25.9017188 Z M18.151233,25.8771797 C18.1343274,25.8771797 18.1174219,25.8774609 18.100659,25.8780937 C17.6718139,25.8933516 17.378784,25.8987656 17.0079314,25.9006641 C17.1697113,25.1300391 17.6586175,25.0342031 18.3371943,25.0011563 L19.6824355,24.9935625 L24.3957371,24.9935625 C25.5759885,24.9935625 26.5361821,25.9401797 26.5361821,27.1035703 L26.5361821,31.6254375 C26.5361821,33.3048516 25.1500679,34.6710937 23.4463859,34.6710937 C21.7427038,34.6710937 20.3565183,33.3047812 20.3565183,31.6254375 L20.3565183,28.3220156 C20.3565183,27.7204922 20.0019293,26.9947266 19.453176,26.4729375 C19.042663,26.0823516 18.5935598,25.8771797 18.151233,25.8771797 Z" id="Shape"></path>
                <path d="M16.841948,12.661341 L15.5601919,11.3978956 L16.841948,10.1344503 C17.1050187,9.8749269 17.1050187,9.45424721 16.841734,9.19465346 C16.5783781,8.93527065 16.1516016,8.93527065 15.8883169,9.19465346 L14.6065608,10.4580988 L13.3248047,9.19465346 C13.0615258,8.93513572 12.6346664,8.93513572 12.3713876,9.19465346 C12.1081087,9.4541712 12.1081087,9.87493259 12.3713876,10.1344503 L13.6531437,11.3978956 L12.3713876,12.661341 C12.201076,12.8292195 12.1345617,13.0739078 12.1969001,13.3032342 C12.2592385,13.5325605 12.4409587,13.7116848 12.6736087,13.7731326 C12.9062586,13.8345804 13.1544931,13.7690164 13.3248047,13.6011378 L14.6065608,12.3376925 L15.8883169,13.6011378 C16.0199949,13.7308644 16.1925459,13.7956925 16.3650255,13.7956925 C16.5375051,13.7956925 16.710056,13.7308644 16.841734,13.6011378 C16.9682492,13.4765702 17.0393543,13.3075475 17.0393945,13.1312831 C17.0394346,12.9550188 16.9684064,12.7859646 16.841948,12.661341 Z M29.6051546,12.661341 L28.3233984,11.3978956 L29.6051546,10.1344503 C29.7754661,9.96657179 29.8419804,9.72188348 29.779642,9.49255712 C29.7173037,9.26323076 29.5355834,9.08410648 29.3029334,9.02265867 C29.0702835,8.96121086 28.822049,9.02677491 28.6517374,9.19465346 L27.3699813,10.4580988 L26.0882252,9.19465346 C25.8249463,8.93513572 25.398087,8.93513572 25.1348081,9.19465346 C24.8715292,9.4541712 24.8715292,9.87493259 25.1348081,10.1344503 L26.4165642,11.3978956 L25.1348081,12.661341 C24.9644965,12.8292195 24.8979823,13.0739078 24.9603206,13.3032342 C25.022659,13.5325605 25.2043793,13.7116848 25.4370292,13.7731326 C25.6696791,13.8345804 25.9179136,13.7690164 26.0882252,13.6011378 L27.3699813,12.3376925 L28.6517374,13.6011378 C28.7780657,13.725904 28.9496169,13.7959176 29.128446,13.7956925 C29.3072751,13.7959176 29.4788263,13.725904 29.6051546,13.6011378 C29.8683679,13.3416144 29.8683679,12.9209347 29.6051546,12.661341 Z" id="Shape"></path>
                <path d="M28.9130435,27.6645234 C28.9130435,28.0315296 29.2148726,28.3290469 29.5871977,28.3290469 C29.9595228,28.3290469 30.2613519,28.0315296 30.2613519,27.6645234 C30.2613519,27.2975173 29.9595228,27 29.5871977,27 C29.2148726,27 28.9130435,27.2975173 28.9130435,27.6645234 Z" id="Shape"></path>
            </g>
        </g>
    </g>
</svg>