<?xml version="1.0" encoding="UTF-8"?>
<svg width="24px" height="24px" viewBox="0 0 24 24" version="1.1" xmlns="http://www.w3.org/2000/svg" xmlns:xlink="http://www.w3.org/1999/xlink">
    <!-- Generator: Sketch 51.2 (57519) - http://www.bohemiancoding.com/sketch -->
    <title>1</title>
    <desc>Created with Sketch.</desc>
    <defs></defs>
    <g id="Symbols" stroke="none" stroke-width="1" fill="none" fill-rule="evenodd">
        <g id="中毒-1" fill-rule="nonzero">
            <path d="M11.3437031,0 C5.09507812,0 0.011484375,5.08359375 0.011484375,11.3322187 C0.011484375,17.5808906 5.09507813,22.6645312 11.3437031,22.6645312 C11.8658906,22.6645312 12.3892969,22.6281562 12.9040312,22.5573281 C13.4113125,23.4196406 14.3485312,24 15.41925,24 C17.0273906,24 18.3356719,22.6916719 18.3356719,21.0835781 L18.3245625,16.416375 C18.3245625,13.8254531 16.2166875,11.7175313 13.6257656,11.7175313 C11.0348438,11.7175313 8.92692187,13.8254531 8.92692187,16.416375 L8.92692187,17.7107813 C8.92690944,17.8282801 8.97358017,17.9409701 9.05666442,18.0240543 C9.13974866,18.1071386 9.25243864,18.1538093 9.3699375,18.1537969 L10.7070469,18.1537969 C11.2557656,18.1537969 11.4829219,18.1537969 11.9381719,18.1374375 L11.93925,18.1374375 C11.9628281,18.1374375 12.0535312,18.1640625 12.1801406,18.2862656 C12.3795,18.4785469 12.502875,18.7448438 12.502875,18.8812969 L12.502875,21.0835781 C12.502875,21.2974688 12.5266875,21.5058281 12.5705625,21.7067813 C12.1633902,21.7544347 11.7537951,21.7784125 11.3438438,21.7785938 C5.58370313,21.7785938 0.897609375,17.0923594 0.897609375,11.3322656 C0.897609375,5.57217188 5.58370313,0.885984375 11.3437969,0.885984375 C17.1038906,0.885984375 21.7900781,5.572125 21.7900781,11.3322188 C21.7900781,13.255125 21.2634375,15.1342969 20.2671094,16.7666719 C20.1396562,16.9754531 20.2055625,17.248125 20.4144375,17.3755781 C20.6231719,17.5030313 20.8958906,17.437125 21.0233437,17.22825 C22.1046094,15.4568906 22.6760625,13.4179688 22.6760625,11.3322656 C22.6760156,5.08359375 17.5924219,0 11.3437031,0 Z M10.2934688,17.2678125 L9.81285938,17.2678125 L9.81285938,16.4164219 C9.81285938,14.3139844 11.5232813,12.6035625 13.6257188,12.6035625 C15.6717656,12.6035625 17.3459531,14.2236563 17.4342187,16.248375 C17.0481094,15.9525937 16.5658125,15.77625 16.0429688,15.77625 L12.943125,15.77625 L12.0471094,15.7814062 C12.0409219,15.7814531 12.0346406,15.7816406 12.0284531,15.7819219 C11.6302031,15.8010469 10.4898281,15.8565 10.2934688,17.2678125 Z M11.9394375,17.2514531 C11.9283281,17.2514531 11.9172187,17.2516406 11.9062031,17.2520625 C11.6243906,17.2622344 11.4318281,17.2658437 11.188125,17.2671094 C11.2944375,16.7533594 11.6157187,16.6894687 12.0616406,16.6674375 L12.9456563,16.662375 L16.0429688,16.662375 C16.8185625,16.662375 17.4495469,17.2934531 17.4495469,18.0690469 L17.4495469,21.083625 C17.4495469,22.2032344 16.5386719,23.1140625 15.4191094,23.1140625 C14.2995469,23.1140625 13.388625,22.2031875 13.388625,21.083625 L13.388625,18.8813437 C13.388625,18.4803281 13.1556094,17.9964844 12.795,17.648625 C12.5252344,17.3882344 12.2301094,17.2514531 11.9394375,17.2514531 Z" id="Shape" fill="#D28D5C"></path>
            <path d="M11.0597812,9.0121875 L10.2174844,8.16989062 L11.0597812,7.32759375 C11.2326562,7.15457812 11.2326562,6.874125 11.0596406,6.7010625 C10.8865781,6.52814062 10.606125,6.52814062 10.4331094,6.7010625 L9.5908125,7.54335937 L8.74851562,6.7010625 C8.5755038,6.52805067 8.2949962,6.52805067 8.12198438,6.7010625 C7.94897255,6.87407433 7.94897255,7.15458192 8.12198438,7.32759375 L8.96428125,8.16989062 L8.12198438,9.0121875 C8.01006534,9.12410653 7.96635598,9.28723207 8.00732118,9.44011631 C8.04828639,9.59300055 8.16770258,9.71241673 8.32058682,9.75338194 C8.47347106,9.79434715 8.6365966,9.75063779 8.74851563,9.63871875 L9.5908125,8.79642187 L10.4331094,9.63871875 C10.5196406,9.72520312 10.6330313,9.76842187 10.746375,9.76842187 C10.8597188,9.76842187 10.9731094,9.72520312 11.0596406,9.63871875 C11.1427791,9.55567365 11.1895054,9.44299183 11.1895318,9.32548226 C11.1895581,9.2079727 11.1428825,9.09526991 11.0597812,9.0121875 Z M19.4470312,9.0121875 L18.6047344,8.16989062 L19.4470312,7.32759375 C19.5589503,7.21567472 19.6026596,7.05254918 19.5616944,6.89966494 C19.5207292,6.7467807 19.401313,6.62736452 19.2484288,6.58639931 C19.0955446,6.5454341 18.932419,6.58914346 18.8205,6.7010625 L17.9782031,7.54335937 L17.1359062,6.7010625 C16.9628944,6.52805067 16.6823868,6.52805067 16.509375,6.7010625 C16.3363632,6.87407433 16.3363632,7.15458192 16.509375,7.32759375 L17.3516719,8.16989062 L16.509375,9.0121875 C16.397456,9.12410653 16.3537466,9.28723207 16.3947118,9.4401163 C16.435677,9.59300054 16.5550932,9.71241672 16.7079774,9.75338193 C16.8608617,9.79434713 17.0239872,9.75063778 17.1359062,9.63871875 L17.9782031,8.79642187 L18.8205,9.63871875 C18.9035157,9.72189619 19.0162494,9.76857194 19.1337656,9.76842187 C19.2512819,9.76857194 19.3640156,9.72189619 19.4470312,9.63871875 C19.62,9.46570312 19.62,9.18525 19.4470312,9.0121875 Z" id="Shape" fill="#D28D5C"></path>
            <path d="M19.2666094,18.2660625 C19.2666094,18.5107333 19.4649542,18.7090781 19.709625,18.7090781 C19.9542958,18.7090781 20.1526406,18.5107333 20.1526406,18.2660625 C20.1526406,18.0213917 19.9542958,17.8230469 19.709625,17.8230469 C19.4649542,17.8230469 19.2666094,18.0213917 19.2666094,18.2660625 Z" id="Shape" fill="#000000"></path>
        </g>
    </g>
</svg>