<?xml version="1.0" encoding="UTF-8"?>
<svg width="24px" height="24px" viewBox="0 0 24 24" version="1.1" xmlns="http://www.w3.org/2000/svg" xmlns:xlink="http://www.w3.org/1999/xlink">
    <!-- Generator: Sketch 51.2 (57519) - http://www.bohemiancoding.com/sketch -->
    <title>2</title>
    <desc>Created with Sketch.</desc>
    <defs></defs>
    <g id="Symbols" stroke="none" stroke-width="1" fill="none" fill-rule="evenodd">
        <g id="检测" fill="#D28D5C" fill-rule="nonzero">
            <path d="M23.7746301,22.8568951 L19.9427338,19.0249987 C22.9006785,15.730917 23.5729291,11.159552 22.0267504,7.26043763 C21.9595324,6.99151863 21.6906134,6.78984113 21.4217179,6.78984113 C21.0183628,6.78984113 20.7494438,7.05873668 20.7494438,7.46211516 C20.7494438,7.52933318 20.7494438,7.5965512 20.8166853,7.66379266 C22.295646,11.3612295 21.4217179,15.6636989 18.5982091,18.5544257 C16.648652,20.4367648 14.0940388,21.512347 11.4050364,21.512347 C8.71598716,21.512347 6.16139742,20.4367414 4.27905827,18.5544022 C0.379943906,14.6552879 0.379943906,8.20156034 4.27905827,4.30244597 C6.16137398,2.4201537 8.71596373,1.34452462 11.4050364,1.34452462 C14.0268676,1.34452462 16.4469979,2.35291223 18.329337,4.10079187 C18.4637965,4.23525136 18.5982326,4.30246941 18.7999101,4.30246941 C19.2032651,4.30246941 19.4721841,4.03357385 19.4721841,3.63021881 C19.4721841,3.42854128 19.4049427,3.2940818 19.2705066,3.15962231 C17.1192485,1.07562907 14.2285217,0 11.405013,0 C8.4470682,0 5.55634144,1.14284709 3.33786525,3.36129982 C-1.0990402,7.79822871 -1.0990402,15.0586664 3.33786525,19.4955953 C5.55634141,21.714048 8.5142862,22.8568951 11.405013,22.8568951 C14.0940622,22.8568951 16.8503295,21.8485075 19.0015642,19.9661683 L22.8334605,23.7980647 C22.96792,23.9325242 23.1695975,23.9997422 23.304057,23.9997422 C23.4385165,23.9997422 23.6401706,23.9325242 23.7746301,23.7980647 C24.0435257,23.5291691 24.0435257,23.1257906 23.7746301,22.8568951 Z" id="Shape"></path>
            <path d="M18.7998867,11.22677 L16.1108374,11.22677 L16.0436194,11.22677 C15.8419419,11.22677 15.6402644,11.293988 15.5058049,11.4284475 L14.9679903,11.9662621 L10.9344399,8.47050277 C10.8671985,8.4032613 10.7999804,8.4032613 10.6655209,8.4032613 C10.3966254,8.4032613 10.1277064,8.47050277 9.99327033,8.7393983 L7.57314007,11.5628836 L5.15296294,11.5628836 C4.7496079,11.5628836 4.48068891,11.8318026 4.48068893,12.2351576 C4.48068895,12.6385127 4.74960792,12.9074317 5.15296294,12.9074317 L7.90925365,12.9074317 C8.1781492,12.9746497 8.4470682,12.8401902 8.58150424,12.5712946 L10.7327624,10.0167049 L14.6318767,13.3779813 L14.7663128,13.4451993 L15.2369093,13.4451993 C15.3041273,13.4451993 15.3713688,13.3779813 15.4385868,13.3779813 C15.4385868,13.3779813 15.5058049,13.3779813 15.5058049,13.3107633 L16.2452969,12.5712712 L18.7998867,12.5712712 C19.2032417,12.5712712 19.4721607,12.3023756 19.4721607,11.8989972 C19.4721607,11.5628836 19.2032417,11.2267466 18.7998867,11.2267466 L18.7998867,11.22677 Z" id="Shape"></path>
        </g>
    </g>
</svg>