<?xml version="1.0" encoding="UTF-8"?>
<svg width="36px" height="36px" viewBox="0 0 36 36" version="1.1" xmlns="http://www.w3.org/2000/svg" xmlns:xlink="http://www.w3.org/1999/xlink">
    <!-- Generator: Sketch 51.2 (57519) - http://www.bohemiancoding.com/sketch -->
    <title>2</title>
    <desc>Created with Sketch.</desc>
    <defs></defs>
    <g id="New" stroke="none" stroke-width="1" fill="none" fill-rule="evenodd">
        <g id="Artboard" transform="translate(-840.000000, -1938.000000)" fill="#FFFFFF" fill-rule="nonzero">
            <g id="2" transform="translate(840.000000, 1938.000000)">
                <path d="M35.6466659,34.2853426 L29.8988214,28.5374981 C34.3357386,23.5963754 35.3441145,16.739328 33.0248464,10.8906564 C32.9240194,10.4872779 32.5206409,10.1847617 32.1172976,10.1847617 C31.512265,10.1847617 31.1088865,10.588105 31.1088865,11.1931727 C31.1088865,11.2939998 31.1088865,11.3948268 31.2097487,11.495689 C33.4281897,17.0418443 32.1172976,23.4955484 27.8820345,27.8316385 C24.9576987,30.6551473 21.1257789,32.2685205 17.0922754,32.2685205 C13.0587015,32.2685205 9.22681689,30.6551121 6.40330817,27.8316034 C0.554636619,21.9829318 0.554636619,12.3023405 6.40330817,6.45366895 C9.22678174,3.63023054 13.0586663,2.01678694 17.0922754,2.01678694 C21.0250222,2.01678694 24.6552176,3.52936835 27.4787263,6.15118781 C27.6804155,6.35287704 27.8820696,6.45370411 28.1845859,6.45370411 C28.7896185,6.45370411 29.192997,6.05036078 29.192997,5.44532822 C29.192997,5.14281192 29.0921348,4.9411227 28.8904807,4.73943347 C25.6635935,1.61344361 21.3275033,0 17.0922402,0 C12.6553231,0 8.31923292,1.71427064 4.99151863,5.04194973 C-1.66383954,11.6973431 -1.66383954,22.5879995 4.99151863,29.2433929 C8.31923288,32.571072 12.7561501,34.2853426 17.0922402,34.2853426 C21.1258141,34.2853426 25.260215,32.7727612 28.487067,29.9492525 L34.2349115,35.697097 C34.4366008,35.8987862 34.7391171,35.9996133 34.9408063,35.9996133 C35.1424955,35.9996132 35.4449767,35.8987862 35.6466659,35.697097 C36.0500093,35.2937537 36.0500093,34.688686 35.6466659,34.2853426 Z" id="Shape"></path>
                <path d="M27.4787966,16.2352631 L23.4452227,16.2352631 L23.3443957,16.2352631 C23.0418794,16.2352631 22.7393631,16.3360901 22.5376739,16.5377794 L21.7309521,17.3445011 L15.6806265,12.1008622 C15.5797643,12 15.4789373,12 15.277248,12 C14.8739047,12 14.4705262,12.1008622 14.2688721,12.5042055 L10.6386767,16.7394334 L7.00841101,16.7394334 C6.40337845,16.7394334 5.99999996,17.1428119 6,17.7478445 C6.00000004,18.352877 6.40337849,18.7562555 7.00841101,18.7562555 L11.1428471,18.7562555 C11.5461904,18.8570826 11.9495689,18.6553933 12.151223,18.25205 L15.3781102,14.4201654 L21.2267817,19.46208 L21.4284358,19.562907 L22.1343306,19.562907 C22.2351576,19.562907 22.3360198,19.46208 22.4368468,19.46208 C22.4368468,19.46208 22.5376739,19.46208 22.5376739,19.3612529 L23.646912,18.2520148 L27.4787966,18.2520148 C28.0838292,18.2520148 28.4872077,17.8486715 28.4872077,17.2436038 C28.4872077,16.7394334 28.0838292,16.2352279 27.4787966,16.2352279 L27.4787966,16.2352631 Z" id="Shape"></path>
            </g>
        </g>
    </g>
</svg>