<?xml version="1.0" encoding="UTF-8"?>
<svg width="24px" height="24px" viewBox="0 0 24 24" version="1.1" xmlns="http://www.w3.org/2000/svg" xmlns:xlink="http://www.w3.org/1999/xlink">
    <!-- Generator: Sketch 51.2 (57519) - http://www.bohemiancoding.com/sketch -->
    <title>3</title>
    <desc>Created with Sketch.</desc>
    <defs></defs>
    <g id="Symbols" stroke="none" stroke-width="1" fill="none" fill-rule="evenodd">
        <g id="执法证" fill="#D28D5C" fill-rule="nonzero">
            <path d="M21.8684995,5.61541239 C21.7803903,5.61541239 21.7126967,5.61997901 21.6460776,5.61433788 C21.4236558,5.59580273 21.1980105,5.59311647 20.9804239,5.54825603 C20.4343085,5.43623924 19.9650199,5.1786275 19.5865268,4.76064637 C19.3157524,4.46166631 19.1191186,4.12158656 19.0210703,3.73369151 C18.9308122,3.37373349 18.8711773,3.00598532 18.7970367,2.63528227 C18.7629213,2.62373137 18.7121511,2.60734524 18.6619181,2.58881007 C17.6771375,2.22777754 16.6923568,1.86674501 15.7081133,1.50517524 C14.9186233,1.21505981 14.130745,0.921183639 13.3407177,0.634023085 C12.8205574,0.445433122 12.298686,0.261596146 11.7751689,0.0825351438 C11.5567765,0.00785729276 11.3531585,-0.0270640168 11.1135446,0.0932801679 C10.7756138,0.263051408 10.4024932,0.361368302 10.0449528,0.491383001 C9.46660232,0.702253927 8.8887891,0.913930753 8.31151312,1.1261448 C7.41457293,1.45655403 6.51790137,1.78750051 5.62149843,2.11898425 C5.14495697,2.29493389 4.66949002,2.47249526 4.19751522,2.64817629 C4.16742916,2.86952361 4.15587829,3.08979644 4.10376494,3.30013012 C4.0293557,3.59937882 3.9509171,3.90265687 3.82681217,4.18310178 C3.6884701,4.49631898 3.46873451,4.76333263 3.20306401,4.98763485 C2.88474292,5.25652886 2.52290451,5.44671563 2.11754879,5.5278405 C1.80836097,5.59016159 1.48950261,5.60171247 1.15318364,5.63824553 C1.144319,5.73468204 1.13303673,5.8410577 1.12524658,5.94716474 C1.08871352,6.4237062 1.04304721,6.90024763 1.02101995,7.37759496 C1.00839456,7.65078699 1.03176497,7.9258594 1.04465896,8.19958867 C1.06964112,8.72340818 1.09435465,9.2472277 1.1273956,9.77077859 C1.14566212,10.0641175 1.16822665,10.3587996 1.21174397,10.6494523 C1.28158656,11.1139056 1.35116055,11.579702 1.45511857,12.0374397 C1.61387618,12.7358657 1.77424554,13.4359035 1.98592234,14.1195551 C2.17503461,14.7314837 2.42727386,15.32434 2.66312697,15.9212256 C2.93175237,16.6005792 3.28257712,17.2407135 3.66348794,17.8620441 C4.01780483,18.441469 4.40892341,18.9975236 4.84785729,19.5189255 C5.22903673,19.9718279 5.60914165,20.4241931 6.06096958,20.8104764 C6.43758239,21.1325582 6.80506193,21.4667282 7.19241974,21.7748416 C7.83658344,22.2876474 8.53393494,22.7238951 9.26620776,23.097553 C9.79566841,23.3675215 10.3468877,23.59451 10.8854816,23.8470178 C11.212936,24.0004029 11.5616118,24.0321007 11.8917524,23.9292172 C12.2997943,23.8016201 12.6930619,23.6192235 13.0817629,23.4357524 C13.9144217,23.0445527 14.7106312,22.5800597 15.460978,22.047765 C16.0626988,21.6195761 16.6217083,21.1430346 17.1565414,20.6364071 C17.3377238,20.4612667 17.5114974,20.2786208 17.6774061,20.0889486 C17.9086925,19.8289192 18.1445456,19.5705016 18.3567597,19.2954292 C18.8238993,18.6907534 19.2665939,18.0680797 19.6206422,17.389532 C19.906191,16.8420734 20.2102749,16.3007933 20.4434418,15.7310388 C20.7263043,15.0404029 20.962426,14.328277 21.184042,13.614808 C21.440042,12.7893221 21.6176034,11.9431521 21.7290829,11.084894 C21.8072529,10.4896202 21.8875719,9.89380903 21.9423715,9.29611752 C21.9811371,8.85773645 21.999513,8.41779093 21.9974397,7.97770408 C21.9963651,7.4796726 21.9705771,6.98110388 21.9450577,6.48334104 C21.9297461,6.19564324 21.8945561,5.90901995 21.8684995,5.61541239 Z M20.6486716,8.2527765 C20.6271815,8.74033158 20.6121385,9.22949843 20.5637859,9.71490452 C20.5111353,10.2492004 20.4450535,10.7845708 20.3459308,11.3124197 C20.2366002,11.8985603 20.1079286,12.4838951 19.9435299,13.056873 C19.7622078,13.6894858 19.5392487,14.311085 19.3173641,14.9316096 C19.2128688,15.2225309 19.0710346,15.5010955 18.9415572,15.7831522 C18.6102596,16.5008327 18.2118146,17.1855645 17.7515467,17.8281973 C17.5138132,18.1604869 17.2559328,18.4793452 16.996978,18.7957859 C16.7987324,19.0372802 16.5951144,19.2774313 16.3732298,19.4977041 C16.1161553,19.7531668 15.8432319,19.9933179 15.5660105,20.227022 C15.2662246,20.478724 14.9645582,20.7301574 14.6451627,20.9552655 C14.2793162,21.2138072 13.9017669,21.4553778 13.5137125,21.6792109 C13.1373683,21.8959916 12.7443694,22.0851039 12.3527135,22.2755593 C12.102086,22.3972466 11.8455488,22.5111438 11.5825645,22.6019391 C11.501171,22.6298762 11.3810955,22.5882392 11.2924491,22.5487513 C10.8376663,22.3475509 10.3801973,22.1514543 9.93803988,21.9252718 C9.26593915,21.5814313 8.6233872,21.1844029 8.02623295,20.7207555 C7.70130398,20.4704853 7.38572296,20.2083076 7.08013431,19.9347576 C6.81166118,19.6963263 6.55762893,19.4421146 6.3193872,19.1734733 C5.98607374,18.7902712 5.66429575,18.3971861 5.35448478,17.994745 C4.92307239,17.4392277 4.56902413,16.8321343 4.25043441,16.2078489 C3.84857083,15.4215824 3.50338719,14.6087219 3.25813222,13.7593284 C3.07304933,13.1181196 2.89924869,12.4723442 2.75472822,11.8214649 C2.65023295,11.3502959 2.59382162,10.8673075 2.53176915,10.3878111 C2.48287934,10.0036768 2.44124238,9.61658763 2.42431898,9.22949843 C2.39423293,8.52381953 2.38429381,7.81733472 2.36844492,7.11111858 C2.36698498,7.03997441 2.37733312,6.9690806 2.39906821,6.90132214 C2.40873873,6.87069885 2.45601679,6.84034418 2.49174397,6.83121091 C3.28284575,6.62732424 3.95440924,6.2227744 4.49166002,5.61084574 C4.91689401,5.12597692 5.19304093,4.55702833 5.34991815,3.93086254 C5.3735572,3.83630639 5.39424134,3.741213 5.41841763,3.63752361 C6.04431479,3.40677439 6.66725707,3.1762938 7.290468,2.9476936 C7.78903672,2.76449107 8.28867995,2.58451208 8.78644282,2.40050367 C9.59581114,2.10125498 10.4057167,1.80361806 11.2115929,1.49523609 C11.4084953,1.42002097 11.5796096,1.41840922 11.7808101,1.49496748 C12.736042,1.85895488 13.6971836,2.2060189 14.6567135,2.55926128 C15.6243022,2.91545855 16.5918909,3.27219307 17.5594795,3.62812173 C17.5718363,3.63295699 17.5858048,3.63349423 17.6016537,3.63591186 C17.7367723,4.36576704 18.0233956,5.0316894 18.5106821,5.59177335 C19.0116684,6.16770618 19.6276264,6.58380693 20.3781658,6.77775445 C20.4340399,6.79226022 20.4926002,6.804617 20.54149,6.83228542 C20.5756055,6.85162645 20.6177796,6.89460652 20.6201973,6.92952781 C20.6360462,7.14442811 20.6454481,7.35959705 20.6497461,7.57449739 C20.6540441,7.80067996 20.6588793,8.0273998 20.6486716,8.2527765 Z" id="Shape"></path>
            <path d="M8.07619727,9.06912907 L8.97179434,8.14801259 C8.4170829,7.54279958 7.76163695,6.93758657 6.97993703,6.31974817 L6.97698216,6.31974817 L6.05720881,7.18901994 C6.92809232,7.84527178 7.59643231,8.47654144 8.07619727,9.06912907 Z M14.2207345,12.3119748 L16.4790682,12.3119748 L16.4790682,11.0881175 L14.2207345,11.0881175 L14.2207345,7.97179434 L16.6558237,7.97179434 L16.6558237,6.68454145 L9.46418469,6.68454145 L9.46418469,7.97179434 L12.8837859,7.97179434 L12.8837859,16.1979098 L11.5207807,16.1979098 L11.5207807,9.80113327 L10.2337964,9.80113327 L10.2337964,16.1979098 L9.08542288,16.1979098 L9.08542288,17.4854313 L16.920957,17.4854313 L16.920957,16.1979098 L14.2207345,16.1979098 L14.2207345,12.3119748 Z" id="Shape"></path>
            <path d="M9.16117524,14.06583 C8.80793284,14.4190724 8.46731585,14.7344386 8.13932425,15.0377167 L8.13932425,9.95236936 L5.1758489,9.95236936 L5.1758489,11.2143715 L6.88994753,11.2143715 L6.88994753,15.5671773 C6.88994753,15.844936 6.77631899,16.0719245 6.54933054,16.2484113 L7.05380903,17.4470178 C7.92007971,16.8467703 8.738525,16.1802848 9.50179224,15.4535488 L9.16117524,14.06583 Z" id="Shape"></path>
        </g>
    </g>
</svg>