<?xml version="1.0" encoding="UTF-8"?>
<svg width="32px" height="36px" viewBox="0 0 32 36" version="1.1" xmlns="http://www.w3.org/2000/svg" xmlns:xlink="http://www.w3.org/1999/xlink">
    <!-- Generator: Sketch 51.2 (57519) - http://www.bohemiancoding.com/sketch -->
    <title>3</title>
    <desc>Created with Sketch.</desc>
    <defs></defs>
    <g id="New" stroke="none" stroke-width="1" fill="none" fill-rule="evenodd">
        <g id="Artboard" transform="translate(-1200.000000, -1935.000000)" fill="#FFFFFF" fill-rule="nonzero">
            <g id="3" transform="translate(1200.000000, 1935.000000)">
                <path d="M31.7731158,8.40137344 C31.6388543,8.40137344 31.5357021,8.40822337 31.4341873,8.39976167 C31.0952588,8.37195894 30.7514183,8.36792955 30.4198578,8.3006389 C29.5876819,8.13261372 28.8725755,7.7461961 28.2958241,7.11922441 C27.8832154,6.67075432 27.583583,6.16063469 27.4341761,5.57879212 C27.2966399,5.03885509 27.2057678,4.48723283 27.0927916,3.93117826 C27.0408062,3.91385191 26.9634421,3.88927272 26.8868966,3.86146995 C25.3862784,3.31992116 23.8856602,2.77837236 22.3858607,2.23601771 C21.1828283,1.80084457 19.9822519,1.36003031 18.7784008,0.92928948 C17.9857755,0.646404535 17.1905429,0.370649072 16.3928026,0.102057568 C16.0600141,-0.0099592085 15.749739,-0.0623411728 15.3846131,0.118175104 C14.869671,0.372831965 14.3011062,0.520307306 13.7562828,0.715329354 C12.8749868,1.03163574 11.9945095,1.34915098 11.1148509,1.66747205 C9.74808488,2.1630859 8.38172823,2.65950561 7.01578088,3.15673123 C6.28962247,3.42065569 5.56510141,3.68699774 4.8459017,3.95051929 C4.80005629,4.28254027 4.78245495,4.61294951 4.70304414,4.92845004 C4.58965863,5.37732308 4.47013315,5.83224016 4.28102087,6.25290753 C4.07021391,6.72273333 3.73537873,7.1232538 3.33054748,7.45970712 C2.84548677,7.86304814 2.29411396,8.1483283 1.67642906,8.2700156 C1.20528571,8.36349724 0.719406309,8.38082356 0.206920251,8.43562315 C0.193412231,8.58027791 0.176220206,8.7398414 0.164349496,8.89900197 C0.108680069,9.61381415 0.0390933129,10.3286263 0.00552795603,11.0446473 C-0.013710726,11.4544353 0.0219013261,11.867044 0.0415493165,12.2776379 C0.0796173723,13.0633671 0.117276081,13.8490964 0.167624193,14.6344227 C0.195458888,15.0744311 0.229842938,15.5164542 0.296155036,15.9524332 C0.402581845,16.6491132 0.508599347,17.3478079 0.667011579,18.0344144 C0.908927933,19.0820534 1.15330029,20.1321101 1.47585542,21.1575875 C1.76402649,22.0754805 2.14839106,22.9647648 2.50778628,23.8600932 C2.91712022,24.8791237 3.45171031,25.8393252 4.03214585,26.771321 C4.5720573,27.6404584 5.16804752,28.4745403 5.83689915,29.2566431 C6.417744,29.9359967 6.99695151,30.6145445 7.68545121,31.1939694 C8.25933739,31.6770922 8.81930621,32.1783472 9.40956573,32.6405172 C10.3911485,33.409726 11.4537794,34.0640975 12.5696237,34.6245843 C13.3764209,35.0295371 14.2163741,35.3700198 15.0370886,35.7487816 C15.5360667,35.9788593 16.0673821,36.0264059 16.5704535,35.8720807 C17.1922318,35.680685 17.7914967,35.4070901 18.3838029,35.1318834 C19.6526164,34.5450839 20.8658879,33.8483444 22.0092735,33.0499023 C22.9261815,32.407619 23.7780054,31.6928068 24.5929893,30.9328655 C24.8690768,30.670155 25.1338746,30.396186 25.3866878,30.1116777 C25.7391243,29.7216337 26.0985195,29.3340072 26.4218933,28.9213986 C27.133725,28.0143849 27.8083073,27.0803745 28.3478095,26.0625528 C28.7829315,25.241365 29.2462974,24.4294448 29.6015993,23.5748131 C30.0326279,22.5388592 30.3924325,21.4706704 30.730133,20.4004668 C31.1202282,19.162238 31.3907979,17.8929831 31.5606715,16.6055959 C31.6797877,15.7126851 31.8021785,14.8189684 31.8856827,13.9224311 C31.9447541,13.2648595 31.9727554,12.6049412 31.9695961,11.944811 C31.9679587,11.1977638 31.9286627,10.4499107 31.889776,9.70326641 C31.8664439,9.27171971 31.8128212,8.84178478 31.7731158,8.40137344 Z M29.9143304,12.3574196 C29.8815837,13.0887522 29.858661,13.8225025 29.7849809,14.5506116 C29.7047514,15.3520555 29.6040553,16.1551111 29.4530111,16.9468844 C29.2864122,17.8260954 29.0903412,18.7040974 28.8398288,19.5635644 C28.5635284,20.5124836 28.2237813,21.4448824 27.8856714,22.3756693 C27.7264406,22.8120513 27.5103122,23.2298981 27.3130133,23.6529831 C26.8081788,24.7295039 26.2010246,25.7566016 25.499664,26.7205508 C25.1374034,27.2189852 24.7444428,27.6972727 24.3498449,28.1719337 C24.0477565,28.5341751 23.7374814,28.8944017 23.3993715,29.224811 C23.007639,29.6080051 22.5917557,29.9682318 22.1693231,30.3187879 C21.7125064,30.6963409 21.2528244,31.0734909 20.7661264,31.4111531 C20.208646,31.7989656 19.6333328,32.1613216 19.0420118,32.4970712 C18.468535,32.8222422 17.8696795,33.1059107 17.2728706,33.3915938 C16.890962,33.5741247 16.5000481,33.7449705 16.0993102,33.8811635 C15.975282,33.9230691 15.7923097,33.8606137 15.6572295,33.8013818 C14.9642272,33.4995812 14.2671315,33.2054364 13.5933679,32.8661625 C12.5692144,32.3504018 11.5900876,31.7548592 10.6801382,31.0593881 C10.1850084,30.6839828 9.70412303,30.2907162 9.23846413,29.8803913 C8.82936222,29.5227443 8.44226546,29.1414268 8.07923044,28.7384647 C7.57132422,28.1636617 7.08099585,27.574034 6.60890294,26.9703724 C5.95151263,26.1370964 5.41201053,25.2264563 4.92654047,24.2900282 C4.31417692,23.1106284 3.7881828,21.8913377 3.41446095,20.6172475 C3.13242988,19.6554343 2.8675908,18.6867711 2.64736913,17.7104521 C2.48813825,17.0036987 2.40217812,16.279216 2.30762198,15.5599715 C2.23312322,14.9837701 2.16967643,14.4031363 2.1438884,13.8225025 C2.09804298,12.7639841 2.08289765,11.7042569 2.05874696,10.6449327 C2.0565223,10.5382165 2.07229089,10.4318758 2.10541103,10.3302381 C2.12014705,10.2843031 2.19218981,10.2387711 2.24663124,10.2250712 C3.45211966,9.91924121 4.4754545,9.31241645 5.29412236,8.39452347 C5.94209796,7.66722022 6.36289327,6.81379735 6.60194427,5.87454866 C6.63796567,5.73271444 6.66948437,5.59007436 6.70632443,5.43454027 C7.66007248,5.08841643 8.60931787,4.74269555 9.5589726,4.39979525 C10.3186964,4.12499146 11.0800575,3.85502297 11.8385533,3.57901036 C13.0718764,3.13013732 14.3060183,2.68368194 15.53402,2.22110898 C15.8340618,2.10828631 16.0948075,2.10586868 16.4013986,2.22070607 C17.8569901,2.76668717 19.3215869,3.28728321 20.7837277,3.81714677 C22.2581485,4.35144268 23.7325694,4.88654445 25.2069902,5.42043745 C25.2258196,5.42769033 25.2471049,5.4284962 25.2712556,5.43212264 C25.4771506,6.52690542 25.9139099,7.52578896 26.6564416,8.36591487 C27.4198494,9.22981413 28.3584521,9.85396524 29.5021312,10.1448865 C29.5872726,10.1666452 29.6765074,10.1851804 29.7510062,10.226683 C29.8029916,10.2556945 29.867257,10.3201646 29.870941,10.3725466 C29.8950917,10.694897 29.9094184,11.0176504 29.9159678,11.3400009 C29.9225171,11.6792748 29.9298851,12.0193546 29.9143304,12.3574196 Z" id="Shape"></path>
                <path d="M10.6956015,13.1240713 L12.0603208,11.7423966 C11.2150462,10.8345771 10.2162715,9.92675759 9.02510968,9 L9.02060702,9 L7.61904762,10.3039076 C8.94610822,11.2882854 9.96453105,12.2351899 10.6956015,13.1240713 Z M20.0587058,17.98834 L23.4999762,17.98834 L23.4999762,16.152554 L20.0587058,16.152554 L20.0587058,11.4780693 L23.769318,11.4780693 L23.769318,9.54718991 L12.8106299,9.54718991 L12.8106299,11.4780693 L18.0214509,11.4780693 L18.0214509,23.8172424 L15.9444905,23.8172424 L15.9444905,14.2220776 L13.9833716,14.2220776 L13.9833716,23.8172424 L12.2334691,23.8172424 L12.2334691,25.7485246 L24.1733306,25.7485246 L24.1733306,23.8172424 L20.0587058,23.8172424 L20.0587058,17.98834 Z" id="Shape"></path>
                <path d="M12.1681163,21.170191 C11.6298422,21.7000546 11.1108068,22.1731039 10.6110101,22.628021 L10.6110101,15 L6.0952381,15 L6.0952381,16.8930031 L8.70719792,16.8930031 L8.70719792,23.422212 C8.70719792,23.8388499 8.53404967,24.1793327 8.18816251,24.4440629 L8.95689163,26.2419727 C10.2769231,25.3416014 11.5240779,24.3418731 12.6871518,23.2517692 L12.1681163,21.170191 Z" id="Shape"></path>
            </g>
        </g>
    </g>
</svg>