<?xml version="1.0" encoding="UTF-8"?>
<svg width="24px" height="24px" viewBox="0 0 24 24" version="1.1" xmlns="http://www.w3.org/2000/svg" xmlns:xlink="http://www.w3.org/1999/xlink">
    <!-- Generator: Sketch 51.2 (57519) - http://www.bohemiancoding.com/sketch -->
    <title>4</title>
    <desc>Created with Sketch.</desc>
    <defs></defs>
    <g id="Symbols" stroke="none" stroke-width="1" fill="none" fill-rule="evenodd">
        <g id="商家" fill="#D28D5C" fill-rule="nonzero">
            <path d="M21.9895259,9.78507333 L21.9897656,9.79022829 C21.9897656,11.2697035 20.7903369,12.4692521 19.3108617,12.4692521 C19.297315,12.4692521 19.2837682,12.468293 19.2701015,12.4681731 C19.2457593,12.4679132 19.2214213,12.4673537 19.1970928,12.4664948 L19.1758736,12.4655357 C17.9697314,12.4115884 16.9717061,11.5606594 16.694297,10.4266868 C16.6258508,10.066435 16.3110057,9.80569127 15.9443094,9.80557331 L15.3439357,9.80557331 C14.9704661,9.80558408 14.6518127,10.0757522 14.5907113,10.4441897 C14.3035916,11.5872734 13.2829084,12.4386819 12.0578248,12.4675737 L12.0569856,12.4675737 C12.0357663,12.4680532 12.0146669,12.4691322 11.9933278,12.4691322 C11.9765442,12.4691322 11.9600003,12.4681731 11.9433366,12.4678135 C11.9291092,12.467555 11.9148829,12.4672353 11.9006583,12.4668544 C11.8821963,12.4661351 11.8638542,12.4655357 11.8455121,12.4644567 C11.8154215,12.4630181 11.7855707,12.4608603 11.7557198,12.4582228 L11.7271877,12.4555854 C11.6879709,12.451742 11.6488403,12.4470655 11.6098223,12.4415591 C10.5160105,12.2871499 9.63463118,11.4725454 9.38119867,10.4137394 L9.38083902,10.4137394 C9.30708727,10.0595033 8.99496142,9.80557884 8.63312921,9.80545342 L8.0328754,9.80545342 C7.67099393,9.80544029 7.3587917,10.0594268 7.28516558,10.4137394 L7.28456617,10.4137394 C7.05055469,11.3907852 6.28222501,12.160074 5.30517916,12.3943252 L5.28671719,12.3988808 C5.25554763,12.4060738 5.2241383,12.4125474 5.19260909,12.4187813 L5.15892199,12.425255 C5.1156301,12.4331201 5.07213728,12.4398359 5.02848937,12.4453954 C4.9842113,12.4514713 4.93975258,12.4561491 4.89517955,12.4594217 C4.84963978,12.4628629 4.80403494,12.465381 4.75839313,12.4669743 L4.73117971,12.4675737 C4.71271774,12.4680532 4.69437565,12.4690123 4.67591368,12.4690123 C3.1963186,12.4690123 1.9970098,11.2695836 1.9970098,9.78998853 L1.9970098,9.78866981 L1.9970098,9.78747099 L1.9970098,9.78495344 L0,9.78495344 C0,12.3644744 2.09123778,14.4559519 4.6708786,14.4559519 C6.15299122,14.4559519 7.47386131,13.7651865 8.32958564,12.6886378 C9.18530997,13.7651865 10.5060602,14.4559519 11.9882927,14.4559519 C13.4706451,14.4559519 14.7913953,13.7651865 15.6471196,12.6886378 C16.5028439,13.7651865 17.8234743,14.4559519 19.3057068,14.4559519 C21.8853476,14.4559519 23.9767052,12.3647141 23.9767052,9.78495344 L21.9895259,9.78507333 Z M21.9786165,1.00784484 L1.99808874,1.00784484 C0.894686283,1.00784484 0,1.90241124 0,3.0058137 L0,9.72549151 C0,10.828894 0.894686283,11.7235803 1.99808874,11.7235803 L1.99808874,4.00491801 C1.99792959,3.73992211 2.10312833,3.48573403 2.29050876,3.2983536 C2.47788919,3.11097317 2.73207727,3.00577443 2.99707317,3.00593358 L20.9795122,3.00593358 C21.2445094,3.00580631 21.4986912,3.11101146 21.6860838,3.29838153 C21.8734763,3.48575159 21.978712,3.73992084 21.9786165,4.00491801 L21.9786165,11.7235803 C23.082019,11.7235803 23.9767052,10.8290139 23.9767052,9.7256114 L23.9767052,3.0058137 C23.9765854,1.90241124 23.0818991,1.00784484 21.9786165,1.00784484 Z M21.2150821,15.7503279 L20.7440621,15.7503279 C20.3223156,15.7504603 19.980474,16.0923554 19.9804079,16.514102 L19.9804079,16.7494322 L19.9766915,16.7494322 L19.9804079,21.9872372 L3.9960576,21.9872372 L3.9960576,16.5139821 C3.9960894,16.3114705 3.91565605,16.117244 3.77245869,15.9740467 C3.62926132,15.8308493 3.43503489,15.750416 3.23252324,15.7504478 L2.7616231,15.7504478 C2.33993472,15.7504478 1.99808874,16.0922937 1.99808874,16.5139821 L1.99808874,22.9863415 C1.99796147,23.2513386 2.10316662,23.5055205 2.29053669,23.692913 C2.47790675,23.8803056 2.732076,23.9855412 2.99707317,23.9854458 L20.9795122,23.9854458 C21.2445204,23.9855412 21.4987019,23.8803094 21.686091,23.6929203 C21.8734801,23.5055312 21.978712,23.2513497 21.9786165,22.9863415 L21.9749001,17.0594494 C21.9774058,17.0347131 21.9786462,17.009865 21.9786165,16.9850021 L21.9786165,16.514102 C21.9786165,16.0923748 21.6368093,15.7504603 21.2150821,15.7503279 Z" id="Shape"></path>
        </g>
    </g>
</svg>