<?xml version="1.0" encoding="UTF-8"?>
<svg width="36px" height="35px" viewBox="0 0 36 35" version="1.1" xmlns="http://www.w3.org/2000/svg" xmlns:xlink="http://www.w3.org/1999/xlink">
    <!-- Generator: Sketch 51.2 (57519) - http://www.bohemiancoding.com/sketch -->
    <title>4</title>
    <desc>Created with Sketch.</desc>
    <defs></defs>
    <g id="New" stroke="none" stroke-width="1" fill="none" fill-rule="evenodd">
        <g id="Artboard" transform="translate(-482.000000, -2093.000000)" fill="#FFFFFF" fill-rule="nonzero">
            <g id="4" transform="translate(482.000000, 2093.000000)">
                <path d="M32.9842888,13.356652 L32.9846484,13.3644966 C32.9846484,15.6158719 31.1855054,17.4412719 28.9662926,17.4412719 C28.9459724,17.4412719 28.9256523,17.4398124 28.9051523,17.43963 C28.868639,17.4392345 28.8321319,17.4383831 28.7956393,17.437076 L28.7638103,17.4356165 C26.9545972,17.3535228 25.4575591,16.0586308 25.0414455,14.3330203 C24.9387763,13.7848111 24.4665086,13.3880272 23.9164641,13.3878477 L23.0159035,13.3878477 C22.4556992,13.3878641 21.9777191,13.7989895 21.8860669,14.3596552 C21.4553875,16.0991304 19.9243626,17.3947521 18.0867372,17.4387178 L18.0854784,17.4387178 C18.0536495,17.4394476 18.0220004,17.4410894 17.9899916,17.4410894 C17.9648162,17.4410894 17.9400005,17.43963 17.9150049,17.4390827 C17.8936638,17.4386894 17.8723244,17.4382029 17.8509874,17.4376232 C17.8232944,17.4365287 17.7957813,17.4356165 17.7682682,17.4339746 C17.7231323,17.4317855 17.678356,17.4285017 17.6335797,17.4244882 L17.5907815,17.4204748 C17.5319564,17.4146261 17.4732604,17.4075097 17.4147334,17.3991304 C15.7740157,17.1641599 14.4519468,15.9245443 14.071798,14.3133178 L14.0712585,14.3133178 C13.9606309,13.7742628 13.4924421,13.3878561 12.9496938,13.3876652 L12.0493131,13.3876652 C11.5064909,13.3876452 11.0381876,13.7741465 10.9277484,14.3133178 L10.9268492,14.3133178 C10.575832,15.8001267 9.42333752,16.9707835 7.95776874,17.3272528 L7.93007579,17.3341851 C7.88332144,17.345131 7.83620745,17.3549822 7.78891364,17.3644686 L7.73838299,17.3743198 C7.67344515,17.3862885 7.60820591,17.3965082 7.54273405,17.4049682 C7.47631694,17.4142142 7.40962887,17.4213325 7.34276933,17.4263126 C7.27445967,17.4315493 7.20605241,17.4353811 7.1375897,17.4378057 L7.09676956,17.4387178 C7.0690766,17.4394476 7.04156347,17.440907 7.01387052,17.440907 C4.79447789,17.440907 2.99551469,15.6156894 2.99551469,13.3641317 L2.99551469,13.362125 L2.99551469,13.3603007 L2.99551469,13.3564696 L0,13.3564696 C0,17.2818276 3.13685666,20.4645108 7.00631789,20.4645108 C9.22948683,20.4645108 11.210792,19.413346 12.4943785,17.7751197 C13.777965,19.413346 15.7590903,20.4645108 17.982439,20.4645108 C20.2059676,20.4645108 22.1870929,19.413346 23.4706794,17.7751197 C24.7542659,19.413346 26.7352114,20.4645108 28.9585602,20.4645108 C32.8280214,20.4645108 35.9650579,17.2821924 35.9650579,13.3564696 L32.9842888,13.356652 Z M32.9679248,0 L2.99713311,0 C1.34202942,2.53173234e-16 0,1.3612967 0,3.04038739 L0,13.2659841 C0,14.9450748 1.34202942,16.3065539 2.99713311,16.3065539 L2.99713311,4.56076352 C2.99689439,4.15750889 3.1546925,3.77070095 3.43576314,3.48555681 C3.71683379,3.20041268 4.09811591,3.04032764 4.49560976,3.04056982 L31.4692683,3.04056982 C31.866764,3.04037616 32.2480368,3.20047094 32.5291257,3.48559931 C32.8102145,3.77072767 32.968068,4.15750695 32.9679248,4.56076352 L32.9679248,16.3065539 C34.6230284,16.3065539 35.9650579,14.9452572 35.9650579,13.2661665 L35.9650579,3.04038739 C35.964878,1.3612967 34.6228486,0 32.9679248,0 Z M31.8226232,22.4342133 L31.1160932,22.4342133 C30.4834733,22.4344148 29.9707111,22.95469 29.9706118,23.5964783 L29.9706118,23.9545895 L29.9650373,23.9545895 L29.9706118,31.9251622 L5.9940864,31.9251622 L5.9940864,23.5962959 C5.99413411,23.288126 5.87348407,22.992564 5.65868803,22.774655 C5.44389198,22.5567459 5.15255234,22.4343474 4.84878486,22.4343958 L4.14243465,22.4343958 C3.50990208,22.4343958 2.99713311,22.9545962 2.99713311,23.5962959 L2.99713311,33.4455383 C2.99694221,33.8487949 3.15474993,34.2355934 3.43580503,34.520756 C3.71686013,34.8059185 4.098114,34.9660597 4.49560976,34.9659145 L31.4692683,34.9659145 C31.8667806,34.9660597 32.2480529,34.8059243 32.5291365,34.520767 C32.8102202,34.2356097 32.9680679,33.8488117 32.9679248,33.4455383 L32.9623502,24.4263548 C32.9661086,24.3887126 32.9679692,24.3509003 32.9679248,24.3130655 L32.9679248,23.5964783 C32.9679248,22.9547195 32.455214,22.4344148 31.8226232,22.4342133 Z" id="Shape"></path>
            </g>
        </g>
    </g>
</svg>