<?xml version="1.0" encoding="UTF-8"?>
<svg width="36px" height="27px" viewBox="0 0 36 27" version="1.1" xmlns="http://www.w3.org/2000/svg" xmlns:xlink="http://www.w3.org/1999/xlink">
    <!-- Generator: Sketch 51.2 (57519) - http://www.bohemiancoding.com/sketch -->
    <title>5</title>
    <desc>Created with Sketch.</desc>
    <defs></defs>
    <g id="New" stroke="none" stroke-width="1" fill="none" fill-rule="evenodd">
        <g id="Artboard" transform="translate(-840.000000, -2093.000000)" fill="#FFFFFF" fill-rule="nonzero">
            <g id="5" transform="translate(840.000000, 2093.000000)">
                <path d="M17.9649123,24.7017544 C26.722807,24.7017544 33.6842105,17.989614 33.6842105,13.4736842 C33.6842105,8.95775436 26.722807,2.24561404 17.9649123,2.24561404 C9.20701757,2.24561404 2.24561404,8.95775439 2.24561404,13.4736842 C2.24561404,17.989614 9.20701757,24.7017544 17.9649123,24.7017544 Z M17.9649123,26.9473684 C5.98905264,26.9473684 0,17.3226667 0,13.4736842 C0,9.62470172 5.98905264,0 17.9649123,0 C29.9407719,0 35.9298246,9.62470176 35.9298246,13.4736842 C35.9298246,17.3226666 29.9407719,26.9473684 17.9649123,26.9473684 Z" id="Shape"></path>
                <path d="M17.6140351,16.4824562 C19.4749828,16.481836 20.9830763,14.9727372 20.9824562,13.1117895 C20.981836,11.2508418 19.4727372,9.74274831 17.6117895,9.74336842 C15.7508418,9.74398853 14.2427483,11.2530874 14.2433684,13.1140351 C14.2439885,14.9749828 15.7530874,16.4830763 17.6140351,16.4824562 Z M17.6140351,18.7280702 C14.5134891,18.7280702 12,16.2145811 12,13.1140351 C12,10.0134891 14.5134891,7.5 17.6140351,7.5 C20.7145811,7.5 23.2280702,10.0134891 23.2280702,13.1140351 C23.2280702,16.2145811 20.7145811,18.7280702 17.6140351,18.7280702 Z" id="Shape"></path>
            </g>
        </g>
    </g>
</svg>