<?xml version="1.0" encoding="UTF-8"?>
<svg width="24px" height="24px" viewBox="0 0 24 24" version="1.1" xmlns="http://www.w3.org/2000/svg" xmlns:xlink="http://www.w3.org/1999/xlink">
    <!-- Generator: Sketch 51.2 (57519) - http://www.bohemiancoding.com/sketch -->
    <title>5</title>
    <desc>Created with Sketch.</desc>
    <defs></defs>
    <g id="Symbols" stroke="none" stroke-width="1" fill="none" fill-rule="evenodd">
        <g id="眼睛" fill="#D28D5C" fill-rule="nonzero">
            <path d="M12,19.4707602 C17.8385965,19.4707602 22.4795322,14.996 22.4795322,11.9853801 C22.4795322,8.97476021 17.8385965,4.5 12,4.5 C6.16140353,4.5 1.52046784,8.97476024 1.52046784,11.9853801 C1.52046784,14.996 6.16140353,19.4707602 12,19.4707602 Z M12,20.9678363 C4.01609358,20.9678363 0.0233918158,14.5513684 0.0233918158,11.9853801 C0.0233918158,9.41939179 4.01609358,3.00292397 12,3.00292397 C19.9839064,3.00292397 23.9766082,9.41939182 23.9766082,11.9853801 C23.9766082,14.5513684 19.9839064,20.9678362 12,20.9678363 Z" id="Shape"></path>
            <path d="M12,14.2309942 C13.2406318,14.2305808 14.2460274,13.2245148 14.245614,11.983883 C14.2452006,10.7432512 13.2391347,9.73785559 11.9985029,9.738269 C10.7578711,9.73868241 9.75247547,10.7447483 9.75288888,11.9853801 C9.75330229,13.2260119 10.7593682,14.2314076 12,14.2309942 Z M12,15.7280702 C9.93296935,15.7280702 8.25730993,14.0524108 8.25730993,11.9853801 C8.25730993,9.91834947 9.93296935,8.24269005 12,8.24269005 C14.0670306,8.24269005 15.7426901,9.91834947 15.7426901,11.9853801 C15.7426901,14.0524108 14.0670306,15.7280702 12,15.7280702 Z" id="Shape"></path>
        </g>
    </g>
</svg>