<?xml version="1.0" encoding="UTF-8"?>
<svg width="36px" height="33px" viewBox="0 0 36 33" version="1.1" xmlns="http://www.w3.org/2000/svg" xmlns:xlink="http://www.w3.org/1999/xlink">
    <!-- Generator: Sketch 51.2 (57519) - http://www.bohemiancoding.com/sketch -->
    <title>6</title>
    <desc>Created with Sketch.</desc>
    <defs></defs>
    <g id="New" stroke="none" stroke-width="1" fill="none" fill-rule="evenodd">
        <g id="Artboard" transform="translate(-1200.000000, -2087.000000)" fill="#FFFFFF" fill-rule="nonzero">
            <g id="6" transform="translate(1200.000000, 2087.000000)">
                <path d="M12.5326704,32.0303298 L22.0514049,18.2048962 C22.7472721,17.1934316 22.7489049,15.5557502 22.0538739,14.5468342 L12.5596305,0.755011218 C11.8653562,-0.253347189 10.7374093,-0.251435685 10.041542,0.759351926 L0.522847351,14.5854625 C-0.173059729,15.5970068 -0.174692472,17.2346086 0.520418147,18.2436041 L10.0146217,32.0347103 C10.7088562,33.0437059 11.8368031,33.0417546 12.5327102,32.0302502 L12.5326704,32.0303298 Z M10.3665376,27.7080201 L3.72374116,17.7184979 C3.23857744,16.9876263 3.23941372,15.8014979 3.72617036,15.0693917 L10.3845376,5.05505989 C10.8721305,4.32231653 11.6603474,4.32096255 12.1463474,5.0512767 L18.7883075,15.0407988 C19.2743474,15.7716705 19.2734712,16.9577988 18.7867146,17.6905024 L12.1275907,27.7047944 C11.6407943,28.4375378 10.8517412,28.4388121 10.3665774,27.7080201 L10.3665376,27.7080201 Z M18.8112854,5.0512767 L25.4532456,15.0407988 C25.9392456,15.7716705 25.9383695,16.9577988 25.4516527,17.6905024 L18.7924889,27.7047944 C18.6408827,27.9329404 18.4600066,28.0901617 18.2680996,28.1764581 L18.2680996,32.7447148 C18.6085465,32.6513298 18.9340996,32.4133475 19.1976482,32.03029 L28.7163031,18.2048564 C29.4122102,17.1933917 29.4138429,15.5557103 28.7187721,14.5467944 L19.2246084,0.755011218 C18.9544889,0.362674934 18.6185819,0.124015642 18.2680996,0.0375200672 L18.2681394,4.57387847 C18.4670553,4.6573475 18.6548606,4.81616166 18.8113252,5.05115724 L18.8112854,5.0512767 Z M25.5022279,5.0512767 L32.1442677,15.0407988 C32.6303075,15.7716705 32.6294314,16.9577988 32.142635,17.6905024 L25.4834712,27.7047944 C25.3319049,27.9329404 25.1510288,28.0901218 24.9591615,28.1764581 L24.9591615,32.7447148 C25.2996084,32.6513298 25.6250819,32.4133077 25.8886704,32.03029 L35.4073651,18.2048564 C36.1032721,17.1933917 36.1049049,15.5557103 35.4098341,14.5467944 L25.9156305,0.755011218 C25.6455111,0.362674934 25.3096438,0.124015642 24.9591615,0.0375200672 L24.9591615,4.57387847 C25.1580774,4.65738732 25.3458031,4.81616166 25.5022279,5.05119706 L25.5022279,5.0512767 Z" id="Shape"></path>
            </g>
        </g>
    </g>
</svg>