<?xml version="1.0" encoding="UTF-8"?>
<svg width="24px" height="24px" viewBox="0 0 24 24" version="1.1" xmlns="http://www.w3.org/2000/svg" xmlns:xlink="http://www.w3.org/1999/xlink">
    <!-- Generator: Sketch 51.2 (57519) - http://www.bohemiancoding.com/sketch -->
    <title>6</title>
    <desc>Created with Sketch.</desc>
    <defs></defs>
    <g id="Symbols" stroke="none" stroke-width="1" fill="none" fill-rule="evenodd">
        <g id="数据" fill="#D28D5C" fill-rule="nonzero">
            <path d="M8.37947788,22.3652035 L14.7253009,13.1482478 C15.1892124,12.4739381 15.1903009,11.3821504 14.7269469,10.7095398 L8.39745133,1.51499115 C7.93460177,0.842752212 7.18263717,0.844026549 6.71872566,1.51788496 L0.372929204,10.735292 C-0.0910088496,11.4096549 -0.0920973451,12.5013894 0.371309735,13.1740531 L6.70077876,22.3681239 C7.16360177,23.0407876 7.91556637,23.0394867 8.37950442,22.3651504 L8.37947788,22.3652035 Z M6.93538938,19.4836637 L2.50685841,12.8239823 C2.18341593,12.3367345 2.18397345,11.5459823 2.50847788,11.0579115 L6.94738938,4.38169027 C7.27245133,3.89319469 7.7979292,3.89229204 8.1219292,4.37916814 L12.5499027,11.0388496 C12.8739292,11.5260973 12.8733451,12.3168496 12.5488407,12.8053186 L8.10942478,19.4815133 C7.78489381,19.9700088 7.25885841,19.9708584 6.93541593,19.4836637 L6.93538938,19.4836637 Z M12.5652212,4.37916814 L16.9931947,11.0388496 C17.3171947,11.5260973 17.3166106,12.3168496 16.9921327,12.8053186 L12.5526903,19.4815133 C12.4516195,19.6336106 12.3310354,19.7384248 12.2030973,19.7959558 L12.2030973,22.8414602 C12.4300619,22.7792035 12.6470973,22.6205487 12.8227965,22.365177 L19.1685664,13.1482212 C19.6325044,12.4739115 19.6335929,11.3821239 19.1702124,10.7095133 L12.8407699,1.51499115 C12.6606903,1.25343363 12.4367522,1.09432743 12.2030973,1.03666372 L12.2031239,4.06090265 C12.3357345,4.11654867 12.4609381,4.22242478 12.5652478,4.3790885 L12.5652212,4.37916814 Z M17.0258496,4.37916814 L21.4538761,11.0388496 C21.7779027,11.5260973 21.7773186,12.3168496 21.4527876,12.8053186 L17.0133451,19.4815133 C16.9123009,19.6336106 16.7917168,19.7383982 16.6638053,19.7959558 L16.6638053,22.8414602 C16.8907699,22.7792035 17.1077522,22.6205221 17.2834779,22.365177 L23.6292743,13.1482212 C24.0932124,12.4739115 24.0943009,11.3821239 23.6309204,10.7095133 L17.3014513,1.51499115 C17.1213717,1.25343363 16.8974602,1.09432743 16.6638053,1.03666372 L16.6638053,4.06090265 C16.7964159,4.11657522 16.9215664,4.22242478 17.0258496,4.37911504 L17.0258496,4.37916814 Z" id="Shape"></path>
        </g>
    </g>
</svg>