<?xml version="1.0" encoding="UTF-8"?>
<svg width="56px" height="56px" viewBox="0 0 56 56" version="1.1" xmlns="http://www.w3.org/2000/svg" xmlns:xlink="http://www.w3.org/1999/xlink">
    <!-- Generator: Sketch 51.2 (57519) - http://www.bohemiancoding.com/sketch -->
    <title>Group 15</title>
    <desc>Created with Sketch.</desc>
    <defs></defs>
    <g id="New" stroke="none" stroke-width="1" fill="none" fill-rule="evenodd">
        <g id="Artboard" transform="translate(-1108.000000, -446.000000)" fill-rule="nonzero">
            <g id="Group-15" transform="translate(1108.000000, 446.000000)">
                <circle id="Oval-Copy-5" fill-opacity="0.24" fill="#000000" cx="28" cy="28" r="28"></circle>
                <path d="M40.8254707,18.8314752 C41.5817292,19.6293914 42.0013172,20.6775127 41.9999969,21.7654153 L41.9999969,32.6769056 C41.9999969,33.8234615 41.5342088,34.9230575 40.7051007,35.733795 C39.8759926,36.5445324 38.7514807,37 37.5789447,37 L18.4210521,37 C15.9793725,37 14,35.0644847 14,32.6769056 L14,21.7654153 C14,20.6327645 14.4450526,19.602427 15.1745262,18.8314752 L24.2597883,26.4444445 C26.4120759,28.2482801 29.587921,28.2482801 31.7402085,26.4444445 L40.8254707,18.8314752 Z M30.0145245,25.0423208 C28.8554106,26.0142505 27.1445863,26.0142505 25.9854723,25.0423208 L17.5854733,18 L38.4145236,18 L30.0145245,25.0408798 L30.0145245,25.0423208 Z" id="Shape" fill="#FFFFFF"></path>
            </g>
        </g>
    </g>
</svg>