<?xml version="1.0" encoding="UTF-8"?>
<svg width="56px" height="56px" viewBox="0 0 56 56" version="1.1" xmlns="http://www.w3.org/2000/svg" xmlns:xlink="http://www.w3.org/1999/xlink">
    <!-- Generator: Sketch 51.2 (57519) - http://www.bohemiancoding.com/sketch -->
    <title>Combined Shape</title>
    <desc>Created with Sketch.</desc>
    <defs></defs>
    <g id="New" stroke="none" stroke-width="1" fill="none" fill-rule="evenodd">
        <g id="Artboard" transform="translate(-770.000000, -195.000000)" fill="#FFFFFF" fill-rule="nonzero">
            <path d="M809.013177,231.644459 L811.434359,234.065641 L812.724874,232.775126 L823.224874,243.275126 L818.275126,248.224874 L807.775126,237.724874 L809.065641,236.434359 L806.644459,234.013177 C804.264182,235.884103 801.262407,237 798,237 C790.268014,237 784,230.731986 784,223 C784,215.268014 790.268014,209 798,209 C805.731986,209 812,215.268014 812,223 C812,226.262407 810.884103,229.264182 809.013177,231.644459 Z M822.123266,237.223771 L817.607986,232.708491 C819.059173,229.783185 819.875,226.486866 819.875,223 C819.875,210.918771 810.081229,201.125 798,201.125 C785.918771,201.125 776.125,210.918771 776.125,223 C776.125,235.081229 785.918771,244.875 798,244.875 C801.486866,244.875 804.783185,244.059173 807.708491,242.607986 L812.223771,247.123266 C808.055179,249.586494 803.19266,251 798,251 C782.536027,251 770,238.463973 770,223 C770,207.536027 782.536027,195 798,195 C813.463973,195 826,207.536027 826,223 C826,228.19266 824.586494,233.055179 822.123266,237.223771 Z M798,230.875 C802.349242,230.875 805.875,227.349242 805.875,223 C805.875,218.650758 802.349242,215.125 798,215.125 C793.650758,215.125 790.125,218.650758 790.125,223 C790.125,227.349242 793.650758,230.875 798,230.875 Z" id="Combined-Shape"></path>
        </g>
    </g>
</svg>