<?xml version="1.0" encoding="UTF-8"?>
<svg width="91px" height="32px" viewBox="0 0 91 32" version="1.1" xmlns="http://www.w3.org/2000/svg" xmlns:xlink="http://www.w3.org/1999/xlink">
    <!-- Generator: Sketch 51.2 (57519) - http://www.bohemiancoding.com/sketch -->
    <title>logo</title>
    <desc>Created with Sketch.</desc>
    <defs>
        <linearGradient x1="0%" y1="2.22044605e-14%" x2="100%" y2="100%" id="linearGradient-1">
            <stop stop-color="#07DA4D" offset="0%"></stop>
            <stop stop-color="#00B3B8" offset="100%"></stop>
        </linearGradient>
    </defs>
    <g id="New" stroke="none" stroke-width="1" fill="none" fill-rule="evenodd">
        <g id="Artboard" transform="translate(-384.000000, -16.000000)">
            <g id="logo" transform="translate(384.000000, 16.000000)">
                <text id="QCS-Copy" font-family="PingFangSC-Semibold, PingFang SC" font-size="24" font-weight="500" line-spacing="32" fill="#FFFFFF">
                    <tspan x="40" y="25">QCS</tspan>
                </text>
                <g id="Group" fill="url(#linearGradient-1)" fill-rule="nonzero">
                    <path d="M22.293244,20.9396906 L23.6767767,22.3232233 L24.4142136,21.5857864 L30.4142136,27.5857864 L27.5857864,30.4142136 L21.5857864,24.4142136 L22.3232233,23.6767767 L20.9396906,22.293244 C19.5795328,23.3623447 17.8642326,24 16,24 C11.581722,24 8,20.418278 8,16 C8,11.581722 11.581722,8 16,8 C20.418278,8 24,11.581722 24,16 C24,17.8642326 23.3623447,19.5795328 22.293244,20.9396906 Z M29.7847236,24.1278694 L27.2045632,21.5477089 C28.0338129,19.876106 28.5,17.9924949 28.5,16 C28.5,9.09644063 22.9035594,3.5 16,3.5 C9.09644063,3.5 3.5,9.09644063 3.5,16 C3.5,22.9035594 9.09644063,28.5 16,28.5 C17.9924949,28.5 19.876106,28.0338129 21.5477089,27.2045632 L24.1278694,29.7847236 C21.7458164,31.1922824 18.9672345,32 16,32 C7.163444,32 0,24.836556 0,16 C0,7.163444 7.163444,0 16,0 C24.836556,0 32,7.163444 32,16 C32,18.9672345 31.1922824,21.7458164 29.7847236,24.1278694 Z M16,20.5 C18.4852814,20.5 20.5,18.4852814 20.5,16 C20.5,13.5147186 18.4852814,11.5 16,11.5 C13.5147186,11.5 11.5,13.5147186 11.5,16 C11.5,18.4852814 13.5147186,20.5 16,20.5 Z" id="Combined-Shape"></path>
                </g>
            </g>
        </g>
    </g>
</svg>