<?xml version="1.0" encoding="UTF-8"?>
<svg width="56px" height="56px" viewBox="0 0 56 56" version="1.1" xmlns="http://www.w3.org/2000/svg" xmlns:xlink="http://www.w3.org/1999/xlink">
    <!-- Generator: Sketch 51.2 (57519) - http://www.bohemiancoding.com/sketch -->
    <title>qq</title>
    <desc>Created with Sketch.</desc>
    <defs></defs>
    <g id="New" stroke="none" stroke-width="1" fill="none" fill-rule="evenodd">
        <g id="Artboard" transform="translate(-844.000000, -446.000000)">
            <g id="qq" transform="translate(844.000000, 446.000000)">
                <circle id="Oval" fill-opacity="0.24" fill="#000000" fill-rule="nonzero" cx="28" cy="28" r="28"></circle>
                <g id="Group-3" transform="translate(18.000000, 16.000000)" fill="#FFFFFF">
                    <path d="M19.4850722,15.0348051 C19.2712642,14.3465538 18.9790479,13.543231 18.6832015,12.7718524 L17.6032713,10.0765646 C17.6039974,10.0449835 17.6174284,9.51463797 17.6174284,9.24093467 C17.6174284,4.63190189 15.4415961,0.000363001716 10.0909508,0 C4.74030556,0.000363001716 2.56447327,4.63190189 2.56447327,9.24093467 C2.56447327,9.51463797 2.57790434,10.0449835 2.57899334,10.0765646 L1.49906324,12.7718524 C1.20321684,13.543231 0.911000457,14.3465538 0.697192447,15.0348051 C-0.323568377,18.3188816 0.00712618556,19.67796 0.259049376,19.7084521 C0.799195929,19.7741555 2.36155531,17.2360475 2.36155531,17.2360475 C2.36155531,18.7054784 3.11805089,20.6232165 4.75518863,22.007705 C4.14280473,22.1964659 3.39248019,22.4868673 2.91005091,22.842972 C2.47698986,23.1631395 2.53071411,23.489115 2.60912248,23.6208846 C2.9517961,24.1995094 8.49229129,23.9900574 10.0916768,23.8100085 C11.6910624,23.9900574 17.2315576,24.1995094 17.5745942,23.6208846 C17.6526396,23.489115 17.7067268,23.1631395 17.2733028,22.842972 C16.7908735,22.4865043 16.039823,22.1964659 15.4274391,22.007342 C17.0642138,20.6232165 17.8203464,18.7054784 17.8203464,17.2360475 C17.8203464,17.2360475 19.3830688,19.7741555 19.9232153,19.7084521 C20.1747755,19.67796 20.5054701,18.3188816 19.4850722,15.0348051" id="Fill-1"></path>
                </g>
            </g>
        </g>
    </g>
</svg>