<?xml version="1.0" encoding="UTF-8"?>
<svg width="56px" height="56px" viewBox="0 0 56 56" version="1.1" xmlns="http://www.w3.org/2000/svg" xmlns:xlink="http://www.w3.org/1999/xlink">
    <!-- Generator: Sketch 52.2 (67145) - http://www.bohemiancoding.com/sketch -->
    <title>Group 31</title>
    <desc>Created with Sketch.</desc>
    <g id="New" stroke="none" stroke-width="1" fill="none" fill-rule="evenodd">
        <g id="首页" transform="translate(-1196.000000, -446.000000)">
            <g id="Group-31" transform="translate(1196.000000, 446.000000)">
                <circle id="Oval-Copy-7" fill-opacity="0.38" fill="#000000" fill-rule="nonzero" cx="28" cy="28" r="28"></circle>
                <g id="Group-30" transform="translate(13.000000, 14.000000)" fill="#FFFFFF">
                    <path d="M26.9562865,10.6154459 C26.9118421,10.6154459 26.8673977,10.6133295 26.8229532,10.6006311 C26.5076093,10.5307898 26.3065511,10.2154459 26.3763924,9.89586917 C26.7467627,8.25142472 26.5943818,7.08528716 25.9277151,6.4313189 C24.8250696,5.34772102 22.590149,5.87047234 22.568985,5.87682155 C22.2494082,5.95512843 21.9298315,5.75830303 21.8557574,5.44295912 C21.779567,5.1254988 21.9700432,4.80803848 22.2896199,4.7297316 C22.4081384,4.70010197 25.1806252,4.04401732 26.7509955,5.58475806 C27.7287733,6.54560462 27.9912072,8.07999615 27.5255987,10.1519538 C27.4684559,10.4292025 27.2250696,10.6154459 26.9562865,10.6154459 Z" id="Path"></path>
                    <path d="M30.8017892,12.2302607 C30.7573447,12.2302607 30.7171331,12.2260279 30.6705723,12.2196787 C30.243059,12.147721 29.9531119,11.7413718 30.0229532,11.315975 C30.6853871,7.31174218 30.1499373,4.50750938 28.4293024,2.97523425 C25.7753342,0.617562291 21.0345934,1.95724483 20.9859162,1.96994324 C20.5711014,2.09057816 20.1351225,1.84930832 20.0123712,1.43449351 C19.8938527,1.01967869 20.1330061,0.583699857 20.5520537,0.458832132 C20.7763924,0.391107264 26.1605193,-1.13905147 29.4726887,1.79428187 C31.6293024,3.70750938 32.3382971,6.99639827 31.5785088,11.5699432 C31.5129003,11.9572448 31.1806252,12.2302607 30.8017892,12.2302607 Z" id="Path"></path>
                    <path d="M23.6250696,12.2302607 C23.6250696,12.2302607 26.8885617,4.46518134 16.006022,8.33396441 C16.3509955,4.25354113 14.579567,1.77735065 9.26739765,4.79322367 C9.26739765,4.79322367 -7.99186161,16.494811 4.59649818,23.9699432 C4.59649818,23.9699432 20.427186,30.5096258 27.6102548,18.363594 C29.0345934,13.9889909 24.806022,12.1646522 23.6250696,12.2302607 Z M13.411313,23.9551284 C8.17533416,24.5540702 3.60602199,22.2260279 3.20813839,18.7487792 C2.8102548,15.2715305 6.72983151,11.9678268 11.9658104,11.368885 C17.2039056,10.7657104 21.7732178,13.0958692 22.1711014,16.5710014 C22.5711014,20.0461337 18.6472918,23.3540702 13.411313,23.9551284 Z" id="Shape" fill-rule="nonzero"></path>
                    <path d="M17.1975564,17.7032766 C16.9816834,15.3244406 14.5181913,13.6016893 11.6970273,13.8577739 C8.87586326,14.1138586 6.76369395,16.2471919 6.97956696,18.6281443 C7.19543998,21.0090967 9.65681564,22.731848 12.4779797,22.4736469 C15.3012601,22.2196787 17.411313,20.0821126 17.1975564,17.7032766 Z M10.5054929,20.7233824 C9.63353522,20.7233824 8.92454051,20.0630649 8.92454051,19.2503665 C8.92454051,18.4376681 9.63353522,17.7752342 10.5054929,17.7752342 C11.3816834,17.7752342 12.0885617,18.4376681 12.0885617,19.2503665 C12.0885617,20.0630649 11.379567,20.7233824 10.5054929,20.7233824 Z M13.2398844,18.2408427 C12.84835,18.2408427 12.5308897,17.9254988 12.5308897,17.5339644 C12.5308897,17.1403136 12.84835,16.8228533 13.2398844,16.8228533 C13.6314188,16.8228533 13.9488791,17.1403136 13.9488791,17.5339644 C13.9509955,17.9233824 13.6314188,18.2408427 13.2398844,18.2408427 Z" id="Shape" fill-rule="nonzero"></path>
                </g>
            </g>
        </g>
    </g>
</svg>