<?xml version="1.0" encoding="UTF-8"?>
<svg width="56px" height="56px" viewBox="0 0 56 56" version="1.1" xmlns="http://www.w3.org/2000/svg" xmlns:xlink="http://www.w3.org/1999/xlink">
    <!-- Generator: Sketch 51.2 (57519) - http://www.bohemiancoding.com/sketch -->
    <title>Group 14</title>
    <desc>Created with Sketch.</desc>
    <defs></defs>
    <g id="New" stroke="none" stroke-width="1" fill="none" fill-rule="evenodd">
        <g id="Artboard" transform="translate(-1020.000000, -446.000000)" fill-rule="nonzero">
            <g id="Group-14" transform="translate(1020.000000, 446.000000)">
                <circle id="Oval-Copy-4" fill-opacity="0.24" fill="#000000" cx="28" cy="28" r="28"></circle>
                <path d="M37.6937573,37.5992855 L41.9183221,18.1002961 C42.0907533,17.2749421 41.9901684,16.6840636 41.6165674,16.3276607 C41.2429665,15.9712578 40.7496216,15.9056047 40.1365329,16.1307012 L15.3064382,25.5003455 C14.7508265,25.706684 14.3724358,25.9411595 14.1712661,26.2037722 C13.9700964,26.4663848 13.9461476,26.714929 14.0994198,26.9494046 C14.2526919,27.1838802 14.5592363,27.3667711 15.0190529,27.4980774 L21.3702692,29.4395352 L36.1131379,20.3512617 C36.5154774,20.0886491 36.8220218,20.0323749 37.032771,20.1824393 C37.1668842,20.2762295 37.1285662,20.4169149 36.9178169,20.6044953 L24.9913247,31.1558965 L24.5315082,37.5711484 C24.9721657,37.5711484 25.4032437,37.3648099 25.8247422,36.9521329 L28.9285041,34.0258776 L35.365936,38.6684942 C36.5921135,39.3437838 37.368054,38.987381 37.6937573,37.5992855 Z" id="Path" fill="#FFFFFF"></path>
            </g>
        </g>
    </g>
</svg>