<?xml version="1.0" encoding="UTF-8"?>
<svg width="56px" height="56px" viewBox="0 0 56 56" version="1.1" xmlns="http://www.w3.org/2000/svg" xmlns:xlink="http://www.w3.org/1999/xlink">
    <!-- Generator: Sketch 51.2 (57519) - http://www.bohemiancoding.com/sketch -->
    <title>wechat</title>
    <desc>Created with Sketch.</desc>
    <defs></defs>
    <g id="New" stroke="none" stroke-width="1" fill="none" fill-rule="evenodd">
        <g id="Artboard" transform="translate(-756.000000, -446.000000)">
            <g id="wechat" transform="translate(756.000000, 446.000000)">
                <circle id="Oval-Copy-6" fill-opacity="0.24" fill="#000000" fill-rule="nonzero" cx="28" cy="28" r="28"></circle>
                <path d="M39.0858507,37.4183344 C40.8639757,36.1095817 42,34.1724365 42,32.0220441 C42,28.0790607 38.2238364,24.882144 33.5662544,24.882144 C28.9086724,24.882144 25.1325089,28.0790607 25.1325089,32.0220441 C25.1325089,35.9644302 28.9086724,39.161347 33.5662544,39.161347 C34.5282295,39.161347 35.4578642,39.0215714 36.3192905,38.770095 C36.3974951,38.7456044 36.4804037,38.7324631 36.5668403,38.7324631 C36.7291295,38.7324631 36.8761306,38.782639 37.0148996,38.863876 L38.8612331,39.9462402 C38.9123895,39.9767041 38.9623698,40 39.0235223,40 C39.1787554,40 39.3045883,39.8715738 39.3045883,39.7144757 C39.3045883,39.6439906 39.2769521,39.5729082 39.259312,39.5054097 C39.2487279,39.4653886 39.0211703,38.6028423 38.8794612,38.0658415 C38.8629971,38.0043164 38.849473,37.9469726 38.849473,37.8830581 C38.849473,37.6919121 38.9429657,37.5216727 39.0858507,37.4183344 M30.7550059,30.8793495 C30.1340734,30.8793495 29.6301537,30.3680339 29.6301537,29.7372522 C29.6301537,29.1064704 30.1340734,28.5951549 30.7550059,28.5951549 C31.3759384,28.5951549 31.8792701,29.1064704 31.8792701,29.7372522 C31.8792701,30.3680339 31.3759384,30.8793495 30.7550059,30.8793495 M36.377503,30.8793495 C35.7565704,30.8793495 35.2532387,30.3680339 35.2532387,29.7372522 C35.2532387,29.1064704 35.7565704,28.5951549 36.377503,28.5951549 C36.9984355,28.5951549 37.5017672,29.1064704 37.5017672,29.7372522 C37.5017672,30.3680339 36.9984355,30.8793495 36.377503,30.8793495 Z M24.1201419,17 C29.1693347,17 33.3535733,20.1300156 34.1156268,24.2229292 C33.9339335,24.2139692 33.7504762,24.2079959 33.5658428,24.2079959 C28.4684336,24.2079959 24.3359395,27.7065649 24.3359395,32.0216857 C24.3359395,32.7492352 24.4558923,33.4528913 24.6758059,34.121305 C24.4917606,34.130265 24.3065392,34.1356409 24.1201419,34.1356409 C22.9653014,34.1356409 21.8504453,33.9671935 20.8167338,33.6649439 C20.7226531,33.636272 20.6226923,33.6201441 20.5192036,33.6201441 C20.3245742,33.6201441 20.1481729,33.6804745 19.9817677,33.7778395 L17.7661675,35.0782296 C17.704427,35.1134722 17.6444506,35.1409494 17.5715381,35.1409494 C17.3851407,35.1409494 17.2340236,34.9880326 17.2340236,34.7986786 C17.2340236,34.7138576 17.2669518,34.6290365 17.28812,34.5477995 C17.3010561,34.4994157 17.5738901,33.4654353 17.7444113,32.8197202 C17.7638155,32.7474432 17.7796916,32.6775554 17.7796916,32.6016943 C17.7796916,32.3711245 17.6679708,32.1680319 17.4962735,32.043787 C15.3629939,30.4734032 14,28.1491874 14,25.5675218 C14,20.8360611 18.5305731,17 24.1201419,17 Z M20.7467613,24.1966466 C21.4917627,24.1966466 22.0962311,23.5831875 22.0962311,22.8257715 C22.0962311,22.0689528 21.4917627,21.4548963 20.7467613,21.4548963 C20.0011718,21.4548963 19.3972914,22.0689528 19.3972914,22.8257715 C19.3972914,23.5831875 20.0011718,24.1966466 20.7467613,24.1966466 Z M27.4935225,24.1966466 C28.2391119,24.1966466 28.8429924,23.5831875 28.8429924,22.8257715 C28.8429924,22.0689528 28.2391119,21.4548963 27.4935225,21.4548963 C26.7485211,21.4548963 26.1440527,22.0689528 26.1440527,22.8257715 C26.1440527,23.5831875 26.7485211,24.1966466 27.4935225,24.1966466 Z" id="Combined-Shape-Copy" fill="#FFFFFF"></path>
            </g>
        </g>
    </g>
</svg>